<svg xmlns="http://www.w3.org/2000/svg" width="14.003" height="30" viewBox="33.698 3397 14.003 30"><path d="M38.312 3398.546c1.17-1.114 2.834-1.491 4.404-1.537 1.66-.015 3.319-.006 4.979-.006.007 1.752.008 3.503 0 5.255-1.073-.002-2.147.002-3.22-.002-.68-.043-1.378.473-1.502 1.148-.016 1.171-.006 2.344-.005 3.516 1.573.006 3.147-.002 4.72.004-.115 1.695-.325 3.382-.572 5.063-1.39.013-2.781 0-4.17.008-.013 4.999.006 9.999-.01 14.999-2.065.009-4.13-.004-6.195.006-.039-5.001.004-10.004-.021-15.005-1.007-.01-2.015.007-3.022-.008.004-1.681.001-3.362.002-5.042 1.006-.013 2.013.002 3.02-.008.03-1.634-.031-3.27.032-4.902.101-1.294.593-2.596 1.56-3.49Z" fill="#3d58a6" fill-rule="evenodd" data-name="Path 10"/></svg>