<svg xmlns="http://www.w3.org/2000/svg" width="100.182" height="30.574" viewBox="29.509 889 100.182 30.574"><g data-name="Group 3"><path d="M36.949 913.765c-.102 0-.255-.051-.51-.204l-5.809-5.605c-.305-.255-.509-.459-.611-.612a2.168 2.168 0 0 1-.357-.509 1.412 1.412 0 0 1-.153-.663v-.815c0-.255.051-.458.153-.662.153-.204.255-.408.357-.51l.611-.611 5.759-5.758a.856.856 0 0 1 .509-.153c.204 0 .357.051.51.203.102.153.203.306.203.51V899.548c0 .102-.05.153-.05.204a.387.387 0 0 1-.102.204c-.051.102-.102.153-.102.153 0 .051-.051.102-.153.203l-.153.153s-.102.051-.204.204c-.102.102-.204.153-.204.204l-4.484 4.637c-.102.102-.204.204-.204.306 0 .102.051.204.204.306l4.484 4.433a.704.704 0 0 0 .204.153c.102.102.153.152.204.152l.153.153.153.153c.051.051.051.102.102.153.051.051.051.153.102.204 0 .051.05.153.05.204v1.274c0 .204-.05.356-.203.509-.153.204-.306.255-.459.255Z" fill="#ee4036" fill-rule="evenodd" data-name="Path 12"/><path d="M42.554 919.574c-.102 0-.204-.153-.204-.408v-.152l4.689-29.403c.101-.407.203-.611.356-.611h2.752c.153 0 .204.153.204.408v.153l-4.688 29.402c-.102.407-.204.611-.357.611h-2.752Z" fill="#ee4036" fill-rule="evenodd" data-name="Path 13"/><path d="M54.784 916.16c-.204 0-.306-.051-.408-.153-.102-.102-.102-.306-.102-.611v-22.167c0-.305.051-.56.102-.611.102-.102.204-.153.408-.153h2.905c.203 0 .305.051.407.153.102.102.102.306.102.611v8.765c0 .102 0 .204.051.255.051.102.102.102.153.102h5.962c.051 0 .102-.051.153-.102.051-.102.102-.153.102-.255v-8.765c0-.305.051-.509.153-.611.101-.102.203-.153.407-.153h2.956c.153 0 .305.051.356.153.102.102.102.306.102.611v22.167c0 .305-.051.56-.102.611a.46.46 0 0 1-.356.153h-2.956c-.102 0-.204 0-.255-.051l-.203-.204a1.279 1.279 0 0 1-.102-.509v-10.09c0-.255-.051-.356-.204-.356h-6.013c-.153 0-.204.101-.204.356v10.09c0 .305-.051.509-.153.611-.102.102-.204.153-.407.153h-2.854Z" fill="#ee4036" fill-rule="evenodd" data-name="Path 14"/><path d="M75.982 916.16c-.153 0-.306-.051-.357-.153-.102-.102-.153-.306-.153-.611v-19.874c0-.254-.051-.407-.203-.407h-3.771c-.051 0-.102-.051-.153-.153-.051-.102-.051-.255-.051-.459v-1.325c0-.305.051-.509.102-.56.102-.102.204-.153.408-.153h11.261c.153 0 .306.051.357.153.102.102.102.306.102.56v1.325c0 .255-.051.459-.102.51-.051.051-.204.102-.408.102H79.6c-.153 0-.204.153-.204.407v19.874c0 .305-.051.56-.153.662-.102.102-.204.153-.407.153h-2.854v-.051Z" fill="#ee4036" fill-rule="evenodd" data-name="Path 15"/><path d="M86.428 916.16c-.306 0-.458-.255-.458-.815v-.102l.917-21.912c0-.611.204-.917.509-.917h3.16c.204 0 .356.051.509.153.153.102.255.306.306.611l3.363 15.593c0 .051.051.102.051.102h.102c.051 0 .051-.051.051-.102l3.363-15.491c.102-.509.357-.815.764-.815h3.211c.306 0 .458.357.458.917l.918 21.912v.102c0 .509-.153.815-.51.815h-2.191c-.306 0-.51-.306-.51-.866l-.611-17.02c0-.051 0-.102-.051-.102s-.051 0-.102.051l-3.618 17.122c-.102.509-.357.815-.662.815h-1.274c-.306 0-.561-.255-.663-.815l-3.516-17.02c0-.051-.051-.102-.102-.051v.102l-.662 16.867c0 .611-.153.866-.459.866h-2.293Z" fill="#ee4036" fill-rule="evenodd" data-name="Path 16"/><path d="M108.442 916.16c-.153 0-.306-.051-.357-.153-.102-.102-.102-.306-.102-.611v-22.167c0-.305.051-.56.102-.611a.463.463 0 0 1 .357-.153h2.955c.153 0 .306.051.357.153.102.102.102.306.102.611v19.976c0 .254.102.356.254.356h5.198c.153 0 .306.051.357.102.102.102.102.255.102.51v1.325c0 .254-.051.458-.102.56-.102.102-.204.102-.357.102h-8.866Z" fill="#ee4036" fill-rule="evenodd" data-name="Path 17"/><path d="M122.353 913.765c-.204 0-.357-.051-.459-.204-.102-.153-.204-.306-.204-.509v-1.121c0-.051 0-.153.051-.204 0-.051.051-.102.051-.153.051-.051.051-.102.051-.153 0-.051.051-.102.102-.153.051-.051.102-.102.102-.153 0-.051.051-.051.102-.153l.153-.152c.051 0 .102-.051.153-.153.102-.051.153-.102.153-.153l4.484-4.586c.102-.102.153-.204.153-.306 0-.102-.051-.204-.204-.306l-4.433-4.433c-.051-.051-.102-.102-.255-.204-.102-.102-.204-.153-.204-.204l-.153-.153c-.102-.101-.153-.152-.153-.203 0-.051-.051-.102-.102-.204s-.051-.153-.102-.255V898.274c0-.204.051-.357.204-.509a.647.647 0 0 1 .459-.204c.153 0 .306.051.509.204l5.809 5.656.612.611c.102.102.204.255.306.459.102.204.153.459.153.662V906.223c0 .051-.051.153-.051.204-.051.102-.051.153-.051.204 0 .051-.051.102-.102.204a.63.63 0 0 1-.102.153s-.051.102-.153.204l-.153.152-.204.204c-.102.102-.204.153-.204.204l-5.758 5.758c-.254.204-.407.255-.56.255Z" fill="#ee4036" fill-rule="evenodd" data-name="Path 18"/></g></svg>