<svg xmlns="http://www.w3.org/2000/svg" width="75.818" height="49.146" viewBox="1940.963 829.769 75.818 49.146"><path d="M1992.467 850.429c-2.436-11.792-12.921-20.66-25.484-20.66-14.37 0-26.02 11.6-26.02 25.909 0 9.595 5.287 18.266 13.597 22.769a3.862 3.862 0 0 0 5.228-1.536 3.83 3.83 0 0 0-1.543-5.206c-5.854-3.173-9.572-9.272-9.572-16.027 0-10.069 8.197-18.232 18.31-18.232 10.112 0 18.309 8.163 18.309 18.232 0 6.681-3.637 12.724-9.39 15.927a3.83 3.83 0 0 0-1.484 5.223 3.864 3.864 0 0 0 5.246 1.477c7.464-4.155 12.426-11.689 13.224-20.199h11.317v3.847c0 1.036.705 1.409 1.574.79l10.344-7.356c.886-.631.869-1.621 0-2.239l-10.344-7.357c-.886-.63-1.574-.264-1.574.791v3.847h-11.738Z" fill="#3d58a6" fill-rule="evenodd" data-name="Path 30"/></svg>