<svg xmlns="http://www.w3.org/2000/svg" width="99.994" height="117.068" viewBox="1916.781 843.203 99.994 117.068"><path d="M1953.897 958.815a3.815 3.815 0 0 0 2.997 1.456h47.765c1.56 0 2.963-.952 3.546-2.405.073-.182.998-2.632 1.347-3.613a161.898 161.898 0 0 0 2.916-9.022c1.484-5.099 2.658-10.09 3.406-14.81 1.616-10.202 1.165-18.363-2.216-23.958-3.516-5.819-9.795-10.008-17.988-12.974-4.256-1.541-8.776-2.655-13.292-3.42-1.577-.268-2.557-.384-2.557-.384v-34.986c0-6.346-5.147-11.496-11.463-11.496h-1.912c-6.329 0-11.464 5.164-11.464 11.515l.007 60.637-12.726-11.185c-8.172-7.183-19.544-5.275-24.924 4.183-.84 1.477-.713 3.174.256 4.403l36.302 46.059Zm-27.328-49.671c3.12-2.399 7.231-2.211 10.662.803l19.057 16.749c2.47 2.172 6.338.409 6.338-2.888v-69.09c0-2.113 1.715-3.838 3.82-3.838h1.912a3.83 3.83 0 0 1 3.82 3.819v38.402a3.831 3.831 0 0 0 3.544 3.828 41.6 41.6 0 0 1 1.424.143c1.19.136 2.523.323 3.96.566 4.097.695 8.19 1.703 11.973 3.073 6.702 2.427 11.606 5.698 14.046 9.735 2.192 3.628 2.556 10.217 1.201 18.77-.691 4.367-1.794 9.051-3.194 13.86a153.87 153.87 0 0 1-2.776 8.592c-.33.928-.312.927-.312.927h-43.24l-33.422-42.327s.545-.63 1.187-1.124Z" fill="#3d58a6" fill-rule="evenodd" data-name="Path 29"/></svg>