<svg xmlns="http://www.w3.org/2000/svg" width="24.812" height="30" viewBox="113.49 3397 24.812 30"><path d="M129.302 3421.361v-3.54c0-.753-.218-1.13-.654-1.13-.256 0-.504.121-.744.362v5.052c.24.24.488.361.744.361.436 0 .654-.368.654-1.105Zm4.151-2.752h1.488v-.767c0-.767-.248-1.15-.744-1.15s-.744.383-.744 1.15v.767Zm-12.88-6v1.579h-1.805v9.541h-1.669v-9.541h-1.759v-1.58h5.233Zm4.534 2.842v8.278h-1.512v-.902c-.586.677-1.157 1.015-1.714 1.015-.496 0-.812-.21-.947-.632-.09-.24-.136-.646-.136-1.218v-6.541h1.489v6.09c0 .361.008.557.023.587.015.225.128.338.338.338.301 0 .617-.233.947-.699v-6.316h1.512Zm5.684 2.504v3.293c0 .782-.053 1.331-.158 1.647-.18.63-.579.947-1.195.947-.527 0-1.038-.308-1.534-.925v.812h-1.512v-11.12h1.512v3.632c.481-.602.992-.903 1.534-.903.616 0 1.015.316 1.195.948.105.315.158.872.158 1.67Zm5.662 2.91v.203c0 .436-.015.759-.046.97-.045.33-.157.63-.338.902-.406.601-1.007.902-1.804.902-.782 0-1.391-.286-1.827-.857-.316-.406-.474-1.053-.474-1.94v-2.91c0-.887.15-1.534.451-1.94.436-.571 1.038-.857 1.805-.857.766 0 1.353.286 1.759.857.316.422.474 1.068.474 1.94v1.715h-3v1.466c0 .767.255 1.15.767 1.15.36 0 .586-.195.676-.586 0-.015.004-.068.011-.158a4.46 4.46 0 0 0 .012-.372v-.485h1.534Zm-10.173-18.587v3.52c0 .766-.241 1.149-.722 1.149s-.722-.383-.722-1.15v-3.519c0-.782.241-1.173.722-1.173s.722.391.722 1.173Zm12.022 16.083c0-2.662-.143-4.617-.428-5.865a3.096 3.096 0 0 0-.97-1.658 3.052 3.052 0 0 0-1.715-.778c-2.045-.225-5.142-.338-9.293-.338-4.135 0-7.225.113-9.27.338a3.015 3.015 0 0 0-1.726.778 3.123 3.123 0 0 0-.959 1.658c-.3 1.308-.451 3.263-.451 5.865 0 2.646.151 4.6.451 5.865.151.646.47 1.195.959 1.646.489.451 1.056.714 1.703.79 2.06.225 5.158.338 9.293.338 4.136 0 7.233-.113 9.293-.338a2.964 2.964 0 0 0 1.703-.79c.489-.451.809-1 .959-1.646.301-1.264.451-3.219.451-5.865Zm-17.03-14.684 2.03-6.677h-1.691l-1.151 4.398-1.195-4.398h-1.76l.542 1.556.518 1.557c.527 1.55.873 2.737 1.038 3.564v4.533h1.669v-4.533Zm6.519 1.827v-2.933c0-.872-.158-1.526-.474-1.962-.436-.57-1.022-.857-1.759-.857-.767 0-1.354.286-1.76.857-.315.436-.473 1.09-.473 1.962v2.933c0 .872.158 1.526.473 1.962.406.572.993.857 1.76.857.737 0 1.323-.285 1.759-.857.316-.406.474-1.06.474-1.962Zm4.083 2.706h1.511v-8.345h-1.511v6.383c-.331.466-.647.699-.948.699-.225 0-.346-.12-.361-.361-.015-.03-.022-.225-.022-.586v-6.135h-1.511v6.61c0 .555.045.97.135 1.24.165.405.489.608.97.608.541 0 1.12-.338 1.737-1.015v.902Z" fill="#3d58a6" fill-rule="evenodd" data-name="Path 11"/></svg>